<svg width="40" height="40" viewBox="0 0 40 40" fill="none" xmlns="http://www.w3.org/2000/svg">
<circle cx="20" cy="20" r="20" fill="#F5BD00"/>
<path fill-rule="evenodd" clip-rule="evenodd" d="M20.6734 9.25311C20.5474 8.9962 20.2862 8.83337 20 8.83337C19.7139 8.83337 19.4527 8.9962 19.3267 9.25311L16.3754 15.2704L10.5158 16.133C10.2351 16.1744 10.0017 16.3706 9.91278 16.6401C9.82388 16.9095 9.89466 17.2061 10.0957 17.4064L14.4893 21.7836L13.0186 28.2613C12.9541 28.5456 13.0602 28.8416 13.2906 29.0202C13.5211 29.1987 13.8342 29.2276 14.0934 29.0941L20 26.052L25.9066 29.0941C26.1658 29.2276 26.4789 29.1987 26.7094 29.0202C26.9399 28.8416 27.046 28.5456 26.9814 28.2613L25.5108 21.7836L29.9044 17.4064C30.1054 17.2061 30.1762 16.9095 30.0873 16.6401C29.9984 16.3706 29.765 16.1744 29.4843 16.133L23.6246 15.2704L20.6734 9.25311Z" fill="white"/>
</svg>
