<svg width="40" height="40" viewBox="0 0 40 40" fill="none" xmlns="http://www.w3.org/2000/svg">
<circle cx="20" cy="20" r="20" fill="#454CFF"/>
<g clip-path="url(#clip0_832_277805)">
<path fill-rule="evenodd" clip-rule="evenodd" d="M21.1352 10.8534C20.5839 11.0817 20.1503 11.5153 19.2832 12.3824L15.7617 15.9039C15.2505 15.5413 14.8126 15.2405 14.421 15.0137C13.8944 14.7087 13.3925 14.501 12.8295 14.4531C12.4118 14.4176 11.991 14.4524 11.5847 14.556C11.0372 14.6957 10.5762 14.9829 10.1069 15.3702C9.65413 15.7439 9.145 16.253 8.51677 16.8812L8.49048 16.9075L8.01167 17.3863C7.85578 17.5422 7.77637 17.7588 7.79455 17.9785C7.81273 18.1982 7.92666 18.3988 8.10605 18.5269L11.1165 20.6773C10.5915 21.3411 10.3227 21.8994 10.3053 22.5198C10.3037 22.576 10.3037 22.6323 10.3053 22.6885C10.3356 23.7667 11.1252 24.6572 12.6987 26.2404L15.3027 23.6365C15.5956 23.3436 16.0704 23.3436 16.3633 23.6365C16.6562 23.9294 16.6562 24.4042 16.3633 24.6971L13.7594 27.3011C15.3421 28.8741 16.2324 29.6633 17.3104 29.6937C17.3666 29.6953 17.4229 29.6953 17.4791 29.6937C18.0997 29.6762 18.6581 29.4072 19.3221 28.882L21.4737 31.8943C21.6019 32.0737 21.8024 32.1876 22.0221 32.2058C22.2419 32.224 22.4584 32.1446 22.6143 31.9887L23.0914 31.5116L23.1177 31.4853L23.1177 31.4853L23.1178 31.4852C23.7467 30.8563 24.2565 30.3466 24.6305 29.8932C25.0182 29.4233 25.3056 28.9617 25.4451 28.4135C25.5482 28.0086 25.5828 27.5893 25.5476 27.1729C25.5 26.6092 25.2922 26.1067 24.9868 25.5795C24.7597 25.1874 24.4585 24.7489 24.0953 24.237L27.6166 20.7157C28.4837 19.8486 28.9172 19.4151 29.1456 18.8637C29.3739 18.3124 29.3739 17.6993 29.3739 16.4731V14.625C29.3739 12.7394 29.3739 11.7966 28.7881 11.2108C28.2024 10.625 27.2595 10.625 25.3739 10.625L23.5259 10.625C22.2996 10.625 21.6865 10.625 21.1352 10.8534ZM23.1274 18.9578C23.1274 20.1084 22.1946 21.0412 21.044 21.0412C19.8934 21.0412 18.9607 20.1084 18.9607 18.9578C18.9607 17.8072 19.8934 16.8745 21.044 16.8745C22.1946 16.8745 23.1274 17.8072 23.1274 18.9578ZM14.6741 16.9723C14.2755 16.6925 13.9536 16.4764 13.6691 16.3117C13.2421 16.0643 12.9596 15.9696 12.7024 15.9477C12.4517 15.9264 12.1993 15.9473 11.9555 16.0095C11.7054 16.0733 11.4423 16.213 11.0616 16.5272C10.7005 16.8252 10.2813 17.2386 9.69839 17.821L12.1066 19.5412L14.6741 16.9723ZM20.4593 27.8934L22.1797 30.3019C22.7619 29.7192 23.1754 29.2999 23.4734 28.9386C23.7879 28.5575 23.9277 28.2941 23.9915 28.0436C24.0533 27.8006 24.0741 27.5491 24.0529 27.2993C24.0312 27.0417 23.9365 26.7589 23.6888 26.3314C23.5238 26.0465 23.3073 25.724 23.0269 25.3247L20.4593 27.8934Z" fill="white"/>
</g>
<defs>
<clipPath id="clip0_832_277805">
<rect width="25" height="25" fill="white" transform="translate(7.5 7.5)"/>
</clipPath>
</defs>
</svg>
